<?xml version="1.0"?>
<svg xmlns="http://www.w3.org/2000/svg" xmlns:xlink="http://www.w3.org/1999/xlink" xmlns:svgjs="http://svgjs.com/svgjs" version="1.1" width="512" height="512" x="0" y="0" viewBox="0 0 512 512" style="enable-background:new 0 0 512 512" xml:space="preserve" class=""><g>
<g xmlns="http://www.w3.org/2000/svg">
	<g>
		<path d="M504.38,428.808c-71.459,0-136.55-3.964-199.005-12.136c-28.814-3.782-57.02-8.405-88.774-14.549    c-5.566-1.075-11.132-2.17-16.82-3.325l64.482-175.165c12.278-0.74,31.369,1.713,55.235,10.706    c37.32,14.072,55.377,32.464,56.513,40.382c-0.182,1.166-0.345,2.322-0.537,3.478c-0.061,0.416-0.101,0.821-0.101,1.217    c0,3.194,2.028,6.195,5.282,7.249c3.893,1.257,7.959-1.014,9.53-4.796c1.642-3.944,6.884-6.793,14.448-7.857    c9.328-1.298,21.119,0.375,32.332,4.613c18.929,7.127,30.091,18.655,32.748,26.908c1.024,3.184,3.984,5.272,7.239,5.272    c0.395,0,0.811-0.03,1.217-0.101c3.711-0.598,6.418-3.822,6.387-7.574c-0.487-54.424-17.013-106.983-47.814-151.998    c-30.112-44.022-71.954-77.743-121.329-97.919l8.02-21.271c1.47-3.893-0.264-8.425-4.116-10.007    c-3.984-1.632-8.496,0.355-10.007,4.349l-8.121,21.575c-50.409-17.438-104.093-19.73-155.78-6.529    C92.637,54.795,45.573,83.315,9.307,123.798c-2.251,2.514-2.748,6.266-0.983,9.155c2.22,3.64,6.864,4.714,10.402,2.595    c7.452-4.441,23.44-5.728,42.369,1.399c11.223,4.228,21.18,10.747,27.334,17.885c5.079,5.901,7.107,11.609,5.576,15.674    c-0.335,0.882-0.487,1.784-0.487,2.677c0,3.072,1.876,5.972,4.917,7.117c3.447,1.298,7.249-0.071,9.125-3.072    c0.629-0.994,1.247-1.967,1.876-2.94c6.032-5.221,31.744-7.158,69.125,6.935c18.016,6.793,33.904,15.654,44.732,24.951    c1.46,1.247,2.758,2.464,3.924,3.64l-46.333,125.851c-1.45,3.944,0.568,8.314,4.512,9.763c0.872,0.314,1.754,0.466,2.626,0.466    c3.102,0,6.002-1.896,7.138-4.968l40.615-110.328c0.852,1.247,2.078,2.251,3.599,2.819c1.683,0.639,3.457,0.629,5.049,0.112    l-84.546,229.64l-8.537-3.214l31.562-85.732c1.45-3.944-0.568-8.314-4.512-9.763c-0.872-0.314-1.754-0.466-2.626-0.466    c-3.102,0-6.002,1.906-7.138,4.978l-7.999,21.747c-53.512-11.203-100.199-20.713-153.021-20.713c-4.196,0-7.605,3.408-7.605,7.604    c0,4.239,3.436,7.675,7.675,7.675h7.533c2.484,0.041,4.968,0.112,7.432,0.203c44.671,1.561,86.087,9.905,132.674,19.649    l-20.855,56.644c-1.44,3.914,0.547,8.263,4.461,9.743l22.761,8.577c0.872,0.324,1.774,0.487,2.687,0.487    c1.075,0,2.16-0.223,3.163-0.689c1.845-0.841,3.275-2.383,3.974-4.289l22.954-62.363c6.549,1.328,12.906,2.585,19.253,3.812    c32.058,6.205,60.558,10.879,89.686,14.691c60.893,7.969,124.239,11.984,193.394,12.258h7.614c4.194,0,7.594-3.399,7.594-7.594    C512,432.207,508.585,428.808,504.38,428.808z M309.968,67.66c27.871,13.373,49.081,41.558,60.568,80.582    c1.146,3.903,5.221,6.164,9.155,5.15c3.457-0.882,5.718-3.984,5.718-7.371c0-0.72-0.101-1.45-0.314-2.17    c-5.069-17.195-11.933-32.525-20.348-45.715c22.984,16.911,43.059,37.624,59.443,61.582    c24.475,35.769,39.409,76.577,43.799,119.23c-7.006-5.799-15.776-10.838-25.661-14.559c-10.504-3.964-21.251-6.022-31.065-6.022    c-3.011,0-5.931,0.193-8.74,0.588c-3.386,0.477-6.519,1.227-9.368,2.23c3.082-27.425,3.072-53.704-0.061-78.432    c-0.537-4.238-4.491-7.178-8.709-6.519h-0.01c-4.076,0.629-6.884,4.4-6.367,8.496c2.636,21.048,2.89,43.87,0.771,67.331    c-12.4-12.359-32.575-23.907-53.917-31.947c-24.17-9.115-50.186-13.87-68.243-10.858L309.968,67.66z M105.513,152.774    c-1.48-2.636-3.326-5.272-5.566-7.868c-7.868-9.135-19.76-17.013-33.488-22.183c-9.885-3.731-19.791-5.728-28.885-6.002    c31.45-29.138,69.612-49.943,111.596-60.659c28.135-7.178,56.908-9.5,85.347-7.016C189.602,62.073,143.441,98.41,105.513,152.774z     M242.394,203.892c-2.383-2.92-5.404-6.002-9.196-9.267c-12.136-10.422-29.635-20.227-49.264-27.628    c-21.362-8.05-44.164-12.694-61.633-11.588c24.383-33.508,52.265-59.777,81.616-76.699c32.413-18.696,63.975-24.302,91.825-16.425    L283.09,95.865c-0.01,0.03-0.02,0.061-0.03,0.091L242.394,203.892z" fill="#ffffff" data-original="#000000" style="" class=""/>
	</g>
</g>
<g xmlns="http://www.w3.org/2000/svg">
	<g>
		<path d="M391.97,459.378c-0.973-2.95-3.73-5.055-6.837-5.214c-3.239-0.165-6.3,1.844-7.466,4.86    c-1.259,3.256-0.062,7.132,2.866,9.061c2.829,1.861,6.613,1.64,9.188-0.567C392.037,465.531,392.924,462.271,391.97,459.378z" fill="#ffffff" data-original="#000000" style="" class=""/>
	</g>
</g>
<g xmlns="http://www.w3.org/2000/svg">
	<g>
		<path d="M427.329,477.282c-1.098-2.837-3.846-4.794-6.898-4.873c-3.229-0.082-6.212,1.967-7.32,4.988    c-1.187,3.234,0.013,7.032,2.907,8.937c2.88,1.896,6.766,1.626,9.33-0.688C427.659,483.56,428.452,480.183,427.329,477.282z" fill="#ffffff" data-original="#000000" style="" class=""/>
	</g>
</g>
<g xmlns="http://www.w3.org/2000/svg">
	<g>
		<path d="M251.864,480.139c-1.187-2.803-3.957-4.686-7.017-4.686c-3.321,0-6.307,2.223-7.277,5.394    c-0.887,2.898,0.108,6.165,2.449,8.085c2.557,2.096,6.297,2.279,9.047,0.445C252.059,487.379,253.231,483.46,251.864,480.139z" fill="#ffffff" data-original="#000000" style="" class=""/>
	</g>
</g>
<g xmlns="http://www.w3.org/2000/svg">
	<g>
		<path d="M74.681,420.97c-2.942-1.938-6.9-1.609-9.465,0.816c-2.094,1.979-2.866,5.088-1.988,7.824    c1,3.115,3.959,5.281,7.237,5.281c3.213-0.001,6.143-2.098,7.187-5.131C78.759,426.543,77.528,422.849,74.681,420.97z" fill="#ffffff" data-original="#000000" style="" class=""/>
	</g>
</g>
<g xmlns="http://www.w3.org/2000/svg">
	<g>
		<path d="M217.392,480.139c-2.571-6.073-11.481-6.155-14.043,0c-1.297,3.115-0.313,6.836,2.345,8.907    c2.497,1.946,6.014,2.115,8.698,0.453C217.518,487.566,218.789,483.531,217.392,480.139z" fill="#ffffff" data-original="#000000" style="" class=""/>
	</g>
</g>
<g xmlns="http://www.w3.org/2000/svg">
	<g>
		<path d="M46.05,447.695c-2.478-5.851-10.913-6.218-13.807-0.504c-1.52,3.002-0.824,6.795,1.679,9.052    c2.461,2.219,6.169,2.583,9.014,0.886C46.134,455.223,47.465,451.132,46.05,447.695z" fill="#ffffff" data-original="#000000" style="" class=""/>
	</g>
</g>
<g xmlns="http://www.w3.org/2000/svg">
	<g>
		<path d="M40.946,411.43c-1.936-2.485-5.374-3.499-8.356-2.505c-3.13,1.043-5.286,4.057-5.213,7.368    c0.08,3.542,2.647,6.586,6.112,7.304C40.29,424.852,45.227,416.924,40.946,411.43z" fill="#ffffff" data-original="#000000" style="" class=""/>
	</g>
</g>
<g xmlns="http://www.w3.org/2000/svg">
	<g>
		<path d="M417.681,448.604c-2.718,2.03-3.75,5.839-2.434,8.967c1.323,3.128,4.576,5.04,7.956,4.635    c3.3-0.395,5.974-2.985,6.557-6.24C430.952,449.299,423.076,444.573,417.681,448.604z" fill="#ffffff" data-original="#000000" style="" class=""/>
	</g>
</g>
<g xmlns="http://www.w3.org/2000/svg">
	<g>
		<path d="M476.77,450.427c-2.914,1.982-4.09,5.917-2.72,9.171c1.239,2.93,4.206,4.846,7.399,4.685    c3.388-0.171,6.281-2.625,7.037-5.923C490.005,451.743,482.337,446.641,476.77,450.427z" fill="#ffffff" data-original="#000000" style="" class=""/>
	</g>
</g>
<g xmlns="http://www.w3.org/2000/svg">
	<g>
		<path d="M15.208,385.282c2.484,0.041,4.968,0.112,7.432,0.203v-0.203H15.208z" fill="#ffffff" data-original="#000000" style="" class=""/>
	</g>
</g>
<g xmlns="http://www.w3.org/2000/svg">
</g>
<g xmlns="http://www.w3.org/2000/svg">
</g>
<g xmlns="http://www.w3.org/2000/svg">
</g>
<g xmlns="http://www.w3.org/2000/svg">
</g>
<g xmlns="http://www.w3.org/2000/svg">
</g>
<g xmlns="http://www.w3.org/2000/svg">
</g>
<g xmlns="http://www.w3.org/2000/svg">
</g>
<g xmlns="http://www.w3.org/2000/svg">
</g>
<g xmlns="http://www.w3.org/2000/svg">
</g>
<g xmlns="http://www.w3.org/2000/svg">
</g>
<g xmlns="http://www.w3.org/2000/svg">
</g>
<g xmlns="http://www.w3.org/2000/svg">
</g>
<g xmlns="http://www.w3.org/2000/svg">
</g>
<g xmlns="http://www.w3.org/2000/svg">
</g>
<g xmlns="http://www.w3.org/2000/svg">
</g>
</g></svg>
