<?xml version="1.0"?>
<svg xmlns="http://www.w3.org/2000/svg" xmlns:xlink="http://www.w3.org/1999/xlink" xmlns:svgjs="http://svgjs.com/svgjs" version="1.1" width="512" height="512" x="0" y="0" viewBox="0 0 60 54" style="enable-background:new 0 0 512 512" xml:space="preserve" class=""><g><g xmlns="http://www.w3.org/2000/svg" id="Page-1" fill="none" fill-rule="evenodd"><g id="002---Colosseum" fill="rgb(0,0,0)" fill-rule="nonzero" transform="translate(0 -1)"><path id="Shape" d="m33.428 25h11.144c1.6345457-.0171787 3.1248448-.9390846 3.87-2.394 3.599277-1.1525055 5.8996872-4.6681358 5.514603-8.42776s-3.3504362-6.73590214-7.1086188-7.13481066c-3.7581825-.39890851-7.2822493 1.88855661-8.4479842 5.48357066-.6314084-.3443106-1.3388171-.5254595-2.058-.527-2.3139624.0348823-4.2221867 1.823166-4.407 4.13-1.773694.6886886-2.9403342 2.3983035-2.935 4.301-.0356387 2.483146 1.9449567 4.5268091 4.428 4.569zm12.572-16c2.7177611-.0073289 5.0992746 1.817456 5.7992358 4.4435431.6999612 2.6260872-.4573752 5.3941224-2.8182358 6.7404569-.0815762-1.7965308-1.2092134-3.3781975-2.881-4.041-.5831469-2.1688832-2.5431322-3.6811291-4.789-3.695-.2506046.0021421-.5006741.0235384-.748.064.9645945-2.1374872 3.0919427-3.51163597 5.437-3.512zm-12.92 8.888c.5217559-.0797412.8917-.5512558.845-1.077-.007-.081-.01-.161-.01-.242-.038659-1.3793963 1.0476348-2.5292474 2.427-2.569.713789.0033563 1.3879806.3285114 1.835.885.3418788.4191181.955041.4904469 1.384.161.5013816-.3893214 1.118213-.6004445 1.753-.6 1.4956114.0427778 2.7425556 1.1575087 2.952 2.639.0640686.4101471.3748717.7380624.781.824 1.1628562.2771341 1.9756958 1.3267917 1.953 2.522.0386538 1.3797757-1.04824 2.5297882-2.428 2.569h-11.144c-1.37976-.0392118-2.4666538-1.1892243-2.428-2.569-.0223952-1.2424563.8577793-2.3185543 2.08-2.543z" fill="#ffffff" data-original="#000000" style="" class=""/><path id="Shape" d="m46 4.99c.5522847 0 1-.44771525 1-1v-2c0-.55228475-.4477153-1-1-1s-1 .44771525-1 1v2c0 .55228475.4477153 1 1 1z" fill="#ffffff" data-original="#000000" style="" class=""/><path id="Shape" d="m37.515 7.918c.3915699.39046529 1.0255347.38956984 1.416-.00200003.3904653-.39156988.3895699-1.02553465-.002-1.41599997l-1.414-1.41c-.3944571-.35870714-1.0009669-.34485787-1.3786397.03148038-.3776728.37633824-.3936689.98279525-.0363603 1.37851962z" fill="#ffffff" data-original="#000000" style="" class=""/><path id="Shape" d="m53.071 22.061c-.3903819.3904999-.3903819 1.0235001 0 1.414l1.414 1.414c.2525868.2527654.6208353.3515768.96603.259213.3451946-.0923639.6148921-.3618707.7075-.707s-.0059432-.7134476-.25853-.966213l-1.414-1.414c-.1875683-.187777-.4420908-.2932867-.7075-.2932867s-.5199317.1055097-.7075.2932867z" fill="#ffffff" data-original="#000000" style="" class=""/><path id="Shape" d="m53.778 8.211c.2653486.00071853.5199469-.10479393.707-.293l1.415-1.418c.2730075-.24826467.3871054-.62670212.2968234-.98449763-.0902821-.3577955-.3702698-.63679388-.7283826-.72580883-.3581129-.08901494-.7361441.02642181-.9834408.30030646l-1.414 1.41c-.2859079.28599425-.3714219.71603662-.216678 1.08965456s.5192821.61725909.923678.61734544z" fill="#ffffff" data-original="#000000" style="" class=""/><path id="Shape" d="m59 13.99h-2c-.5522847 0-1 .4477153-1 1s.4477153 1 1 1h2c.5522847 0 1-.4477153 1-1s-.4477153-1-1-1z" fill="#ffffff" data-original="#000000" style="" class=""/><path id="Shape" d="m59 38.782v-7.8c.0001432-.1970887-.0579561-.3898252-.167-.554-.541-.812-3.873-2.76-23.1-3.3-.2664932-.0127934-.5267018.0835078-.7206585.2667101s-.3049287.4375007-.3073415.7042899c-.0156878.5519886.4190143 1.0122087.971 1.028 15.953.452 20.3 1.9 21.328 2.391v6.482h-2.004v-2c0-.5522847-.4477153-1-1-1s-1 .4477153-1 1v2h-3v-2c0-.5522847-.4477153-1-1-1s-1 .4477153-1 1v2h-4v-2c0-.5522847-.4477153-1-1-1s-1 .4477153-1 1v2h-2.1c-.5522847 0-1 .4477153-1 1s.4477153 1 1 1h17.1c.5484737.0090941.9909059.4515263 1 1 .0008733.2694422-.1099083.5272084-.306.712-.1823963.1865985-.4330776.2906276-.694.288h-14c-.5522847 0-1 .4477153-1 1s.4477153 1 1 1h14v9h-2v-3c0-.5522847-.4477153-1-1-1s-1 .4477153-1 1v3h-3v-3c0-.5522847-.4477153-1-1-1s-1 .4477153-1 1v3h-5v-5.019c0-2.209139-1.790861-4-4-4h-.181c.3350248-.9168573.1994424-1.9396941-.3628838-2.7376028-.5623261-.7979087-1.4799925-1.2695718-2.4561162-1.2623972h-.412l-4.111-7.4c.2303217-.1258648.4425761-.2822804.631-.465.5754341-.5610719.8975111-1.3323236.892-2.136 0-1.6568542-1.3431458-3-3-3h-1.382l-3.188-6.375c.2484302-.1294006.4768023-.2941114.678-.489.5754341-.5610719.8975111-1.3323236.892-2.136 0-1.6568542-1.3431458-3-3-3h-4.383l-3.44-6.873c-.3583599-.68139057-1.0651206-1.10775789-1.835-1.107-7.226.135-10.7 1.164-12.134 1.765-.73530193.31277334-1.21137524 1.03594763-1.208 1.835v5.161c-.035.033-.075.057-.108.091-.57450045.5584111-.8966063 1.326843-.892 2.128.0026614.8484938.36629485 1.6557601 1 2.22v7.563c-.035.033-.075.057-.108.091-.57399851.5579289-.89606134 1.3255361-.892 2.126.0026614.8484938.36629485 1.6557601 1 2.22v8.563c-.035.033-.075.057-.108.091-.57399851.5579289-.89606134 1.3255361-.892 2.126.0026614.8484938.36629485 1.6557601 1 2.22v7.8c0 1.1045695.8954305 2 2 2h54c1.1045695 0 2-.8954305 2-2v-9.783c.035-.033.075-.057.108-.091.5888886-.5764387.9117118-1.371697.8912305-2.1955002s-.3824245-1.602037-.9992305-2.1484998zm-56.016-28.174c1.045-.439 4.245-1.475 11.4-1.606l2.993 5.978h-6.377v-2c0-.5522847-.4477153-1-1-1-.55228475 0-1 .4477153-1 1v2h-2v-2c0-.5522847-.44771525-1-1-1s-1 .4477153-1 1v2h-2zm.016 10.372h2c.55228475 0 1-.4477153 1-1s-.44771525-1-1-1h-2c-.55228475 0-1-.4477153-1-1-.00087326-.2694422.10990828-.5272084.306-.712.18239634-.1865985.43307757-.2906276.694-.288h21c.5522847 0 1 .4477153 1 1 .0033123.2690071-.1053592.5272832-.3.713-.1858886.1849395-.4377869.2882178-.7.287h-14c-.55228475 0-1 .4477153-1 1s.44771525 1 1 1h13.381l3 6h-4.381v-1.98c0-.5522847-.4477153-1-1-1s-1 .4477153-1 1v1.98h-4v-1.98c0-.5522847-.4477153-1-1-1s-1 .4477153-1 1v1.98h-3v-1.98c0-.5522847-.4477153-1-1-1-.55228475 0-1 .4477153-1 1v1.98h-2v-1.98c0-.5522847-.44771525-1-1-1s-1 .4477153-1 1v1.98h-2zm0 12h15c.5522847 0 1-.4477153 1-1s-.4477153-1-1-1h-15c-.55228475 0-1-.4477153-1-1-.00087326-.2694422.10990828-.5272084.306-.712.18239634-.1865985.43307757-.2906276.694-.288h27c.5522847 0 1 .4477153 1 1 .0033123.2690071-.1053592.5272832-.3.713-.1858886.1849395-.4377869.2882178-.7.287h-7c-.5522847 0-1 .4477153-1 1s.4477153 1 1 1h6.411l3.889 7h-4.3v-2.98c0-.5522847-.4477153-1-1-1s-1 .4477153-1 1v2.98h-5v-2.98c0-.5522847-.4477153-1-1-1s-1 .4477153-1 1v2.98h-4v-2.98c0-.5522847-.4477153-1-1-1s-1 .4477153-1 1v2.98h-3v-2.98c0-.5522847-.4477153-1-1-1-.55228475 0-1 .4477153-1 1v2.98h-2v-2.98c0-.5522847-.44771525-1-1-1s-1 .4477153-1 1v2.98h-2zm0 13h4c.55228475 0 1-.4477153 1-1s-.44771525-1-1-1h-4c-.55228475 0-1-.4477153-1-1-.00087326-.2694422.10990828-.5272084.306-.712.18239634-.1865985.43307757-.2906276.694-.288h33c.5522847 0 1 .4477153 1 1 .0033123.2690071-.1053592.5272832-.3.713-.1858886.1849395-.4377869.2882178-.7.287h-24c-.5522847 0-1 .4477153-1 1s.4477153 1 1 1h27c1.1045695 0 2 .8954305 2 2v5.02h-4v-3c0-.5522847-.4477153-1-1-1s-1 .4477153-1 1v3h-6v-3c0-.5522847-.4477153-1-1-1s-1 .4477153-1 1v3h-5v-3c0-.5522847-.4477153-1-1-1s-1 .4477153-1 1v3h-4v-3c0-.5522847-.4477153-1-1-1s-1 .4477153-1 1v3h-3v-3c0-.5522847-.4477153-1-1-1-.55228475 0-1 .4477153-1 1v3h-2v-3c0-.5522847-.44771525-1-1-1s-1 .4477153-1 1v3h-2z" fill="#ffffff" data-original="#000000" style="" class=""/></g></g></g></svg>
