<svg id="Layer_1" enable-background="new 0 0 512 512" height="512" viewBox="0 0 512 512" width="512" xmlns="http://www.w3.org/2000/svg"><g><g><g><circle cx="302.589" cy="45.148" fill="#ffd027" r="37.648"/><path d="m449.012 97.344h-6.081v-3.79c0-19.672-15.947-35.619-35.619-35.619-19.672 0-35.619 15.947-35.619 35.619v3.79h-6.081c-13.845 0-25.068 11.224-25.068 25.068 0 13.845 11.223 25.068 25.068 25.068h83.4c13.845 0 25.068-11.223 25.068-25.068.001-13.845-11.223-25.068-25.068-25.068z" fill="#d6dcf1"/></g><g><path d="m36.5 409.02h439v95.48h-439z" fill="#ffe4c9"/><path d="m435.5 409.02h40v95.48h-40z" fill="#ffcb99"/><path d="m36.5 286.5h439v103h-439z" fill="#ffe4c9"/><path d="m435.5 286.5h40v103h-40z" fill="#ffcb99"/><path d="m195.667 131.993-79.167 20-80-20v-88.09l71-20 67.167 20z" fill="#ffe4c9"/><path d="m174.667 43.903h-40l21 88.09h40z" fill="#ffcb99"/><path d="m276 256.375-123 20-116.5-20v-88.09l120.5-13 98.5 13z" fill="#ffe4c9"/><path d="m255.5 168.285h-40l20.5 88.09h40z" fill="#ffcb99"/><path d="m255.5 168.285h-229.803c-10.05 0-18.197-8.147-18.197-18.197 0-9.994 8.102-18.096 18.096-18.096h222.404z" fill="#dc8635"/><path d="m248 131.993h-40l7.5 36.292h40z" fill="#d46802"/><path d="m166 7.5h-140.298c-10.053 0-18.202 8.149-18.202 18.202 0 10.052 8.149 18.202 18.202 18.202h148.965z" fill="#dc8635"/><g fill="#d46802"><path d="m166 7.5h-40l8.667 36.403h40z"/><g><path d="m102.164 391.092h-33.664v-50.877c0-9.296 7.536-16.832 16.832-16.832 9.296 0 16.832 7.536 16.832 16.832z"/><path d="m171.164 391.092h-33.664v-50.877c0-9.296 7.536-16.832 16.832-16.832 9.296 0 16.832 7.536 16.832 16.832z"/><path d="m240.164 391.092h-33.664v-50.877c0-9.296 7.536-16.832 16.832-16.832 9.296 0 16.832 7.536 16.832 16.832z"/><path d="m309.164 391.092h-33.664v-50.877c0-9.296 7.536-16.832 16.832-16.832 9.296 0 16.832 7.536 16.832 16.832z"/><path d="m378.164 391.092h-33.664v-50.877c0-9.296 7.536-16.832 16.832-16.832 9.296 0 16.832 7.536 16.832 16.832z"/><path d="m447.164 391.092h-33.664v-50.877c0-9.296 7.536-16.832 16.832-16.832 9.296 0 16.832 7.536 16.832 16.832z"/></g><g><path d="m102.164 504.26h-33.664v-40.877c0-9.296 7.536-16.832 16.832-16.832 9.296 0 16.832 7.536 16.832 16.832z"/><path d="m171.164 504.26h-33.664v-40.877c0-9.296 7.536-16.832 16.832-16.832 9.296 0 16.832 7.536 16.832 16.832z"/><path d="m240.164 504.26h-33.664v-40.877c0-9.296 7.536-16.832 16.832-16.832 9.296 0 16.832 7.536 16.832 16.832z"/><path d="m309.164 504.26h-33.664v-40.877c0-9.296 7.536-16.832 16.832-16.832 9.296 0 16.832 7.536 16.832 16.832z"/><path d="m378.164 504.26h-33.664v-40.877c0-9.296 7.536-16.832 16.832-16.832 9.296 0 16.832 7.536 16.832 16.832z"/><path d="m447.164 504.26h-33.664v-40.877c0-9.296 7.536-16.832 16.832-16.832 9.296 0 16.832 7.536 16.832 16.832z"/></g><g><path d="m102.164 265.456h-33.664v-50.877c0-9.296 7.536-16.832 16.832-16.832 9.296 0 16.832 7.536 16.832 16.832z"/><path d="m171.164 265.456h-33.664v-50.877c0-9.296 7.536-16.832 16.832-16.832 9.296 0 16.832 7.536 16.832 16.832z"/><path d="m240.164 265.456h-33.664v-50.877c0-9.296 7.536-16.832 16.832-16.832 9.296 0 16.832 7.536 16.832 16.832z"/></g></g><path d="m486.521 292.668h-460.824c-10.05 0-18.197-8.147-18.197-18.197 0-9.994 8.102-18.096 18.096-18.096h460.925c9.93 0 17.979 8.049 17.979 17.979v.335c0 9.929-8.049 17.979-17.979 17.979z" fill="#dc8635"/><path d="m486.521 256.375h-40c9.93 0 17.979 8.05 17.979 17.979v.335c0 9.93-8.049 17.979-17.979 17.979h40c9.93 0 17.979-8.049 17.979-17.979v-.335c0-9.93-8.049-17.979-17.979-17.979z" fill="#d46802"/><path d="m504.5 399.071c0 9.93-8.049 17.979-17.979 17.979h-461.042c-9.93 0-17.979-8.05-17.979-17.979 0-9.93 8.049-17.979 17.979-17.979h461.042c9.93 0 17.979 8.049 17.979 17.979z" fill="#dc8635"/><path d="m486.521 381.092h-40c9.93 0 17.979 8.05 17.979 17.979 0 9.93-8.049 17.979-17.979 17.979h40c9.93 0 17.979-8.049 17.979-17.979 0-9.93-8.049-17.979-17.979-17.979z" fill="#d46802"/></g></g><g><path d="m486.521 300.167c32.858 0 32.97-51.292 0-51.292h-87.604-41.333-56.584-17.412l-28.292-118.623c-.793-3.328-3.874-5.76-7.295-5.76h-46.411l-28.294-118.731c-.805-3.377-3.823-5.761-7.296-5.761h-140.298c-33.14 0-33.14 51.403 0 51.403h3.298v73.089c-37.17-1.968-37.042 53.341 0 51.293v73.089c-37.17-1.968-37.042 53.34 0 51.292v73.424c-37.134-2.022-37.052 53.102 0 50.958v72.452h-21.5c-9.385 0-9.813 15 0 15h406c4.142 0 7.5-3.358 7.5-7.5 0-.041-.005-.08-.006-.12.001-.04.006-.08.006-.12v-40.877c0-5.146 4.187-9.332 9.332-9.332s9.332 4.187 9.332 9.332v40.877c0 .041.005.08.006.12-.001.04-.006.08-.006.12 0 4.142 3.358 7.5 7.5 7.5h57.336c9.385 0 9.813-15 0-15h-21.5v-72.45c37.134 2.022 37.052-53.102 0-50.958v-73.424h3.521zm-471.521-274.465c0-5.901 4.801-10.702 10.702-10.702h134.375l5.101 21.403h-139.476c-5.901 0-10.702-4.8-10.702-10.701zm29 25.701h124.752l17.417 73.089h-49.953-92.216zm-29 98.685c0-5.842 4.753-10.596 10.596-10.596h216.483l5.079 21.293h-221.461c-5.898.001-10.697-4.798-10.697-10.697zm29 25.698h206.735l17.432 73.089h-20.503v-34.297c0-13.417-10.916-24.332-24.332-24.332s-24.332 10.916-24.332 24.332v34.297h-20.336v-34.297c0-13.417-10.916-24.332-24.332-24.332s-24.332 10.916-24.332 24.332v34.297h-20.336v-34.297c0-13.417-10.916-24.332-24.332-24.332s-24.332 10.916-24.332 24.332v34.297h-17zm170 72.17v-33.377c0-5.146 4.187-9.332 9.332-9.332s9.332 4.187 9.332 9.332v33.377zm-69 0v-33.377c0-5.146 4.187-9.332 9.332-9.332s9.332 4.187 9.332 9.332v33.377zm-69 0v-33.377c0-5.146 4.187-9.332 9.332-9.332s9.332 4.187 9.332 9.332v33.377zm0 248.804v-33.377c0-5.146 4.187-9.332 9.332-9.332s9.332 4.187 9.332 9.332v33.377zm69 0v-33.377c0-5.146 4.187-9.332 9.332-9.332s9.332 4.187 9.332 9.332v33.377zm69 0v-33.377c0-5.146 4.187-9.332 9.332-9.332s9.332 4.187 9.332 9.332v33.377zm69 0v-33.377c0-5.146 4.187-9.332 9.332-9.332s9.332 4.187 9.332 9.332v33.377zm69 0v-33.377c0-5.146 4.187-9.332 9.332-9.332s9.332 4.187 9.332 9.332v33.377zm116 .24h-13.336v-33.618c0-13.417-10.916-24.332-24.332-24.332s-24.332 10.916-24.332 24.332v33.618h-20.336v-33.618c0-13.417-10.916-24.332-24.332-24.332s-24.332 10.916-24.332 24.332v33.618h-20.336v-33.618c0-13.417-10.916-24.332-24.332-24.332s-24.332 10.916-24.332 24.332v33.618h-20.336v-33.618c0-13.417-10.916-24.332-24.332-24.332s-24.332 10.916-24.332 24.332v33.618h-20.336v-33.618c0-13.417-10.916-24.332-24.332-24.332s-24.332 10.916-24.332 24.332v33.618h-20.336v-33.618c0-13.417-10.916-24.332-24.332-24.332s-24.332 10.916-24.332 24.332v33.618h-17v-72.45h424zm29-97.929c0 5.778-4.701 10.479-10.479 10.479h-461.042c-13.514 0-13.514-20.958 0-20.958h461.042c5.778 0 10.479 4.7 10.479 10.479zm-402.336-25.479h-18.664v-33.377c0-5.146 4.187-9.332 9.332-9.332s9.332 4.187 9.332 9.332zm69 0h-18.664v-33.377c0-5.146 4.187-9.332 9.332-9.332s9.332 4.187 9.332 9.332zm69 0h-18.664v-33.377c0-5.146 4.187-9.332 9.332-9.332s9.332 4.187 9.332 9.332zm69 0h-18.664v-33.377c0-5.146 4.187-9.332 9.332-9.332s9.332 4.187 9.332 9.332zm69 0h-18.664v-33.377c0-5.146 4.187-9.332 9.332-9.332s9.332 4.187 9.332 9.332zm69 0h-18.664v-33.377c0-5.146 4.187-9.332 9.332-9.332s9.332 4.187 9.332 9.332zm28.336 0h-13.336v-33.377c0-13.417-10.916-24.332-24.332-24.332s-24.332 10.915-24.332 24.331v33.377h-20.336v-33.377c0-13.417-10.916-24.332-24.332-24.332s-24.332 10.916-24.332 24.332v33.377h-20.336v-33.377c0-13.417-10.916-24.332-24.332-24.332s-24.332 10.916-24.332 24.332v33.377h-20.336v-33.377c0-13.417-10.916-24.332-24.332-24.332s-24.332 10.916-24.332 24.332v33.377h-20.336v-33.377c0-13.417-10.916-24.332-24.332-24.332s-24.332 10.916-24.332 24.332v33.377h-20.336v-33.377c0-13.417-10.916-24.332-24.332-24.332s-24.332 10.916-24.332 24.332v33.377h-17v-73.424h90.124c9.385 0 9.813-15 0-15h-108.427c-10.6 0-14.028-13.487-5.906-19.322 4.355-3.129 11.629-1.97 16.709-1.97h450.021c13.445 0 13.641 21.292 0 21.292h-314.398c-9.385 0-9.813 15 0 15h295.877z"/><path d="m68 68.294c-4.142 0-7.5 3.358-7.5 7.5v22.866c0 9.385 15 9.813 15 0v-22.866c0-4.142-3.358-7.5-7.5-7.5z"/><path d="m108 68.294c-4.142 0-7.5 3.358-7.5 7.5v22.866c0 9.385 15 9.813 15 0v-22.866c0-4.142-3.358-7.5-7.5-7.5z"/><path d="m148 106.16c4.142 0 7.5-3.358 7.5-7.5v-22.866c0-9.385-15-9.813-15 0v22.866c0 4.142 3.358 7.5 7.5 7.5z"/><path d="m302.589 90.296c24.895 0 45.148-20.253 45.148-45.148s-20.253-45.148-45.148-45.148-45.148 20.253-45.148 45.148 20.253 45.148 45.148 45.148zm0-75.296c16.624 0 30.148 13.524 30.148 30.148s-13.524 30.148-30.148 30.148-30.148-13.524-30.148-30.148 13.524-30.148 30.148-30.148z"/><path d="m333.044 122.412c0 17.958 14.61 32.568 32.568 32.568h83.4c17.958 0 32.568-14.61 32.568-32.568 0-17.535-13.93-31.877-31.305-32.544-1.875-22.058-20.428-39.433-42.963-39.433s-41.087 17.375-42.962 39.433c-17.375.666-31.306 15.009-31.306 32.544zm32.569-17.568h6.081c4.142 0 7.5-3.358 7.5-7.5v-3.79c0-15.505 12.614-28.119 28.119-28.119s28.119 12.614 28.119 28.119v3.79c0 4.142 3.358 7.5 7.5 7.5h6.081c9.687 0 17.568 7.881 17.568 17.568s-7.881 17.568-17.568 17.568h-83.4c-9.687 0-17.568-7.881-17.568-17.568s7.881-17.568 17.568-17.568z"/></g></g></svg>