<?xml version="1.0"?>
<svg xmlns="http://www.w3.org/2000/svg" xmlns:xlink="http://www.w3.org/1999/xlink" xmlns:svgjs="http://svgjs.com/svgjs" version="1.1" width="512" height="512" x="0" y="0" viewBox="0 0 24 24" style="enable-background:new 0 0 512 512" xml:space="preserve" class=""><g><path xmlns="http://www.w3.org/2000/svg" d="m23.96 9.057c-.09-.267-.321-.46-.6-.502l-7.382-1.101-3.33-7.025c-.124-.262-.387-.429-.677-.429-.264.004-.558.17-.68.434l-3.282 7.046-7.374 1.152c-.279.044-.509.238-.597.506-.089.267-.02.56.177.761l5.379 5.471-1.239 7.763c-.046.282.075.567.31.731.128.09.278.136.43.136.125 0 .251-.031.365-.095l6.577-3.662 6.603 3.618c.251.138.56.119.795-.047.233-.166.353-.451.306-.734l-1.294-7.755 5.342-5.506c.195-.202.262-.496.171-.762z" fill="#ffbf00" data-original="#ffc107" style="" class=""/><path xmlns="http://www.w3.org/2000/svg" d="m12 17h-1.25c-.414 0-.75-.336-.75-.75s.336-.75.75-.75h1.25c.272 0 .5-.286.5-.625s-.228-.625-.5-.625h-1.25c-.414 0-.75-.336-.75-.75v-2.75c0-.414.336-.75.75-.75h2.5c.414 0 .75.336.75.75s-.336.75-.75.75h-1.75v1.25h.5c1.103 0 2 .953 2 2.125s-.897 2.125-2 2.125z" fill="#fafafa" data-original="#fafafa" style="" class=""/><path xmlns="http://www.w3.org/2000/svg" d="m12 11.5h-.5v1.25h.5zm-.029-11.5c-.264.004-.558.17-.68.434l-3.282 7.046-7.374 1.152c-.279.044-.509.238-.597.506-.089.267-.02.56.177.761l5.379 5.471-1.239 7.763c-.046.282.075.567.31.731.128.09.278.136.43.136.125 0 .251-.031.365-.095l6.54-3.641v-3.264h-1.25c-.414 0-.75-.336-.75-.75s.336-.75.75-.75h1.25v-1.25h-1.25c-.414 0-.75-.336-.75-.75v-2.75c0-.414.336-.75.75-.75h1.25v-10c-.01 0-.02 0-.029 0z" fill="#ffbf00" data-original="#dea806" style="" class=""/><path xmlns="http://www.w3.org/2000/svg" d="m12 15.5h-1.25c-.414 0-.75.336-.75.75s.336.75.75.75h1.25zm0-5.5h-1.25c-.414 0-.75.336-.75.75v2.75c0 .414.336.75.75.75h1.25v-1.5h-.5v-1.25h.5z" fill="#ffffff" data-original="#dadada" style="" class=""/></g></svg>
