<?xml version="1.0"?>
<svg xmlns="http://www.w3.org/2000/svg" xmlns:xlink="http://www.w3.org/1999/xlink" xmlns:svgjs="http://svgjs.com/svgjs" version="1.1" width="512" height="512" x="0" y="0" viewBox="0 0 24 24" style="enable-background:new 0 0 512 512" xml:space="preserve" class=""><g><path xmlns="http://www.w3.org/2000/svg" d="m23.36 8.555-7.382-1.101-3.33-7.025c-.124-.262-.387-.429-.677-.429h-.003c-.29.001-.555.17-.677.434l-3.282 7.046-7.374 1.152c-.278.044-.509.238-.597.506-.089.267-.019.56.177.761l5.379 5.471-1.239 7.763c-.046.283.075.568.31.732.128.089.278.135.43.135.125 0 .251-.031.365-.095l6.577-3.662 6.603 3.618c.25.138.559.119.795-.047.233-.166.353-.451.306-.734l-1.294-7.755 5.342-5.506c.196-.202.263-.496.172-.763-.091-.266-.322-.459-.601-.501z" fill="#ffbf00" data-original="#ffc107" style="" class=""/><path xmlns="http://www.w3.org/2000/svg" d="m13.25 17c-.414 0-.75-.336-.75-.75v-5.5c0-.414.336-.75.75-.75s.75.336.75.75v5.5c0 .414-.336.75-.75.75z" fill="#ffffff" data-original="#fafafa" style="" class=""/><path xmlns="http://www.w3.org/2000/svg" d="m13.25 14.25h-1.786c-.821 0-1.464-.732-1.464-1.667v-1.833c0-.414.336-.75.75-.75s.75.336.75.75v1.833c0 .118.044.184.057.194l1.693-.027c.414 0 .75.336.75.75s-.336.75-.75.75z" fill="#ffffff" data-original="#fafafa" style="" class=""/><path xmlns="http://www.w3.org/2000/svg" d="m11.971 0h-.003c-.29.001-.555.17-.677.434l-3.282 7.046-7.374 1.152c-.278.044-.509.238-.597.506-.089.267-.019.56.177.761l5.379 5.471-1.239 7.763c-.046.283.075.568.31.732.128.089.278.135.43.135.125 0 .251-.031.365-.095l6.54-3.641v-6.014h-.536c-.821 0-1.464-.732-1.464-1.667v-1.833c0-.414.336-.75.75-.75s.75.336.75.75v1.833c0 .118.044.184.057.194l.443-.007v-12.769c-.01-.001-.02-.001-.029-.001z" fill="#ffbf00" data-original="#dea806" style="" class=""/><path xmlns="http://www.w3.org/2000/svg" d="m10.75 10c-.414 0-.75.336-.75.75v1.833c0 .935.643 1.667 1.464 1.667h.536v-1.48l-.443.007c-.013-.011-.057-.076-.057-.194v-1.833c0-.414-.336-.75-.75-.75z" fill="#ffffff" data-original="#dadada" style="" class=""/></g></svg>
