<svg id="Kid_avatar" height="512" viewBox="0 0 64 64" width="512" xmlns="http://www.w3.org/2000/svg" data-name="Kid avatar"><path d="m44.292 45c1.013-1.2 1.534-3.045 2.617-4.133 1.364-1.348 3.93-1.817 4.9-3.484.952-1.638.08-4.083.592-5.96.481-1.817 2.476-3.494 2.476-5.461s-2-3.644-2.476-5.461c-.512-1.877.36-4.323-.592-5.96-.973-1.667-3.539-2.137-4.9-3.484s-1.825-3.914-3.5-4.882c-1.644-.949-4.1-.08-5.986-.589-1.823-.479-3.508-2.466-5.483-2.466s-3.66 1.987-5.484 2.466c-1.885.509-4.342-.36-5.986.589-1.674.968-2.146 3.524-3.5 4.882s-3.93 1.817-4.9 3.484c-.952 1.637-.08 4.083-.592 5.96-.478 1.817-2.478 3.499-2.478 5.461s2 3.644 2.476 5.461c.512 1.877-.36 4.322.592 5.96.973 1.667 3.539 2.136 4.9 3.484 1.083 1.088 1.6 2.935 2.617 4.133z" fill="#7e543b"/><path d="m37.9 43.01h.01a11.983 11.983 0 0 1 11.66 11.39l.43 6.6h-36l.43-6.6a11.983 11.983 0 0 1 11.66-11.39z" fill="#ffcbbe"/><path d="m26.09 43.01h.01a5.983 5.983 0 0 0 11.8 0h.01a11.8 11.8 0 0 1 5.09 1.29v16.7h-22v-16.7a11.8 11.8 0 0 1 5.09-1.29z" fill="#ef8746"/><g fill="#ffcbbe"><circle cx="32" cy="42" r="6"/><path d="m45 32h2.5a3.5 3.5 0 0 0 3.5-3.5 3.5 3.5 0 0 0 -3.5-3.5h-2.5z"/><path d="m19 32h-2.5a3.5 3.5 0 0 1 -3.5-3.5 3.5 3.5 0 0 1 3.5-3.5h2.5z"/></g><path d="m18 23a4.98 4.98 0 0 0 4.76-3.55 4.886 4.886 0 0 0 5.24-.47 4.967 4.967 0 0 0 8.36-.57 4.917 4.917 0 0 0 5.88 1.04 4.975 4.975 0 0 0 3.74 3.44.014.014 0 0 0 .02 0v7.11a14 14 0 0 1 -28 0z" fill="#ffddce"/><path d="m26 29a1 1 0 0 0 1-1v-2a1 1 0 0 0 -2 0v2a1 1 0 0 0 1 1z" fill="#3e3d42"/><path d="m38 25a1 1 0 0 0 -1 1v2a1 1 0 0 0 2 0v-2a1 1 0 0 0 -1-1z" fill="#3e3d42"/><path d="m32 37c-2.71 0-5-1.374-5-3h-2c0 2.8 3.075 5 7 5s7-2.2 7-5h-2c0 1.626-2.29 3-5 3z" fill="#3e3d42"/></svg>