<?xml version="1.0" standalone="no"?>
<!DOCTYPE svg PUBLIC "-//W3C//DTD SVG 20010904//EN"
 "http://www.w3.org/TR/2001/REC-SVG-20010904/DTD/svg10.dtd">
<svg version="1.0" xmlns="http://www.w3.org/2000/svg"
 width="200.000000pt" height="100.000000pt" viewBox="0 0 200.000000 100.000000"
 preserveAspectRatio="xMidYMid meet">

<g transform="translate(0.000000,100.000000) scale(0.100000,-0.100000)"
fill="#000000" stroke="none">
<path d="M0 950 l0 -50 50 0 50 0 0 -50 0 -50 50 0 50 0 0 -50 0 -50 50 0 50
0 0 -50 0 -50 50 0 50 0 0 -200 0 -200 50 0 50 0 0 -50 0 -50 50 0 50 0 0 -50
0 -50 150 0 150 0 0 50 0 50 50 0 50 0 0 50 0 50 50 0 50 0 0 150 0 150 100 0
100 0 0 -150 0 -150 50 0 50 0 0 -50 0 -50 50 0 50 0 0 -50 0 -50 150 0 150 0
0 50 0 50 50 0 50 0 0 50 0 50 50 0 50 0 0 200 0 200 -50 0 -50 0 0 50 0 50
-50 0 -50 0 0 50 0 50 -50 0 -50 0 0 50 0 50 -50 0 -50 0 0 50 0 50 -50 0 -50
0 0 -50 0 -50 50 0 50 0 0 -50 0 -50 50 0 50 0 0 -50 0 -50 50 0 50 0 0 -50 0
-50 -700 0 -700 0 0 50 0 50 -50 0 -50 0 0 50 0 50 -50 0 -50 0 0 50 0 50 -50
0 -50 0 0 50 0 50 -50 0 -50 0 0 -50z m1000 -500 l0 -50 -50 0 -50 0 0 -50 0
-50 -50 0 -50 0 0 -50 0 -50 -50 0 -50 0 0 -50 0 -50 -50 0 -50 0 0 100 0 100
50 0 50 0 0 50 0 50 50 0 50 0 0 50 0 50 100 0 100 0 0 -50z m900 0 l0 -50
-50 0 -50 0 0 -50 0 -50 -50 0 -50 0 0 -50 0 -50 -50 0 -50 0 0 -50 0 -50 -50
0 -50 0 0 100 0 100 50 0 50 0 0 50 0 50 50 0 50 0 0 50 0 50 100 0 100 0 0
-50z"/>
</g>
</svg>
