<?xml version="1.0"?>
<svg xmlns="http://www.w3.org/2000/svg" xmlns:xlink="http://www.w3.org/1999/xlink" xmlns:svgjs="http://svgjs.com/svgjs" version="1.1" width="512" height="512" x="0" y="0" viewBox="0 0 512 512" style="enable-background:new 0 0 512 512" xml:space="preserve" class=""><g>
<g xmlns="http://www.w3.org/2000/svg">
	<g>
		<path d="M326.835,37.538c-2.184-2.184-5.472-2.83-8.318-1.638l-30.166,12.627c-3.917-2.477-8.072-4.52-12.42-6.104L260.734,5.351    c-1.171-2.857-3.952-4.722-7.039-4.722s-5.869,1.866-7.039,4.723L231.46,42.424c-4.348,1.584-8.503,3.626-12.42,6.104    L188.873,35.9c-2.849-1.192-6.134-0.546-8.318,1.638c-2.183,2.183-2.831,5.47-1.638,8.318l14.25,34.048    c-2.934,7.511-4.418,15.416-4.418,23.545c0,4.202,3.407,7.608,7.608,7.608h19.854c-7.553,8.709-12.14,20.057-12.14,32.463    c0,27.362,22.26,49.623,49.622,49.623c27.362,0,49.623-22.26,49.623-49.623c0-12.406-4.586-23.754-12.14-32.463h19.854    c4.202,0,7.608-3.407,7.608-7.608c0-8.13-1.484-16.034-4.417-23.545l14.251-34.048C329.665,43.008,329.018,39.721,326.835,37.538z     M253.694,177.926c-18.971,0-34.406-15.434-34.406-34.406s15.434-34.406,34.406-34.406c18.972,0,34.406,15.434,34.406,34.406    S272.666,177.926,253.694,177.926z M233.79,98.079c2.372-8.78,10.385-15.268,19.904-15.268c9.52,0,17.532,6.487,19.905,15.268    c-6.098-2.681-12.828-4.181-19.905-4.181C246.617,93.899,239.887,95.398,233.79,98.079z M299.038,83.036    c1.856,4.116,3.129,8.4,3.807,12.805h-14.108c-3.499-16.128-17.882-28.247-35.043-28.247c-17.161,0-31.544,12.119-35.042,28.247    h-14.107c0.679-4.404,1.951-8.689,3.807-12.805c0.867-1.923,0.897-4.12,0.083-6.065l-8.315-19.866l16.845,7.052    c2.458,1.03,5.276,0.697,7.428-0.875c4.555-3.329,9.593-5.837,14.97-7.454c2.198-0.66,3.98-2.277,4.85-4.401l9.479-23.127    l9.48,23.127c0.87,2.123,2.653,3.74,4.85,4.401c5.38,1.616,10.417,4.124,14.971,7.454c2.152,1.572,4.969,1.906,7.428,0.875    l16.845-7.052l-8.315,19.866C298.14,78.916,298.17,81.112,299.038,83.036z" fill="#ffffff" data-original="#000000" style="" class=""/>
	</g>
</g>
<g xmlns="http://www.w3.org/2000/svg">
	<g>
		<path d="M504.392,89.756H375.215c-4.202,0-7.608,3.407-7.608,7.608v347.538h-39.352V233.506c0-21.542-17.526-39.068-39.068-39.068    c-1.325,0-2.626,0.346-3.776,1.003l-31.716,18.13l-31.716-18.13c-1.149-0.657-2.452-1.003-3.776-1.003    c-21.542,0-39.068,17.526-39.068,39.068v38.435c0,4.202,3.407,7.608,7.609,7.608c4.202,0,7.608-3.407,7.608-7.608v-38.435    c0-12.514,9.689-22.809,21.959-23.777l33.607,19.212c2.34,1.337,5.212,1.337,7.552,0l33.607-19.212    c12.271,0.967,21.959,11.262,21.959,23.777v211.396H194.352V305.377c0-4.202-3.407-7.608-7.609-7.608s-7.608,3.407-7.608,7.608    v139.525h-34.74V97.364c0-4.202-3.407-7.608-7.609-7.608H7.608C3.407,89.756,0,93.162,0,97.364v26.316    c0,4.202,3.407,7.608,7.608,7.608s7.609-3.407,7.609-7.608v-18.708h113.961v347.538v43.644H15.217V161.968    c0-4.202-3.407-7.609-7.609-7.609S0,157.766,0,161.968v341.794c0,4.202,3.407,7.609,7.608,7.609h129.178h238.428h129.177    c4.202,0,7.608-3.407,7.608-7.609V97.364C512,93.162,508.593,89.756,504.392,89.756z M367.607,496.154H144.395v-36.036h42.349    h133.903h46.961V496.154z M496.783,496.154h-113.96V452.51V104.973h113.96V496.154z" fill="#ffffff" data-original="#000000" style="" class=""/>
	</g>
</g>
<g xmlns="http://www.w3.org/2000/svg">
	<g>
		<path d="M475.374,133.618h-21.453c-4.202,0-7.608,3.407-7.608,7.608v41.482c0,4.202,3.407,7.608,7.608,7.608h21.453    c4.202,0,7.609-3.407,7.609-7.608v-41.482C482.982,137.025,479.576,133.618,475.374,133.618z M467.765,175.102h-6.236v-26.266    h6.236V175.102z" fill="#ffffff" data-original="#000000" style="" class=""/>
	</g>
</g>
<g xmlns="http://www.w3.org/2000/svg">
	<g>
		<path d="M475.374,211.156h-21.453c-4.202,0-7.608,3.407-7.608,7.608v41.482c0,4.202,3.407,7.608,7.608,7.608h21.453    c4.202,0,7.609-3.407,7.609-7.608v-41.482C482.982,214.562,479.576,211.156,475.374,211.156z M467.765,252.638h-6.236v-26.266    h6.236V252.638z" fill="#ffffff" data-original="#000000" style="" class=""/>
	</g>
</g>
<g xmlns="http://www.w3.org/2000/svg">
	<g>
		<path d="M475.374,286.845h-21.453c-4.202,0-7.608,3.407-7.608,7.608v41.482c0,4.202,3.407,7.609,7.608,7.609h21.453    c4.202,0,7.609-3.407,7.609-7.609v-41.482C482.982,290.251,479.576,286.845,475.374,286.845z M467.765,328.327h-6.236v-26.265    h6.236V328.327z" fill="#ffffff" data-original="#000000" style="" class=""/>
	</g>
</g>
<g xmlns="http://www.w3.org/2000/svg">
	<g>
		<path d="M429.333,133.618H407.88c-4.202,0-7.609,3.407-7.609,7.608v41.482c0,4.202,3.407,7.608,7.609,7.608h21.453    c4.202,0,7.608-3.407,7.608-7.608v-41.482C436.942,137.025,433.535,133.618,429.333,133.618z M421.725,175.102h-6.236v-26.266    h6.236V175.102z" fill="#ffffff" data-original="#000000" style="" class=""/>
	</g>
</g>
<g xmlns="http://www.w3.org/2000/svg">
	<g>
		<path d="M429.333,211.156H407.88c-4.202,0-7.609,3.407-7.609,7.608v41.482c0,4.202,3.407,7.608,7.609,7.608h21.453    c4.202,0,7.608-3.407,7.608-7.608v-41.482C436.942,214.562,433.535,211.156,429.333,211.156z M421.725,252.638h-6.236v-26.266    h6.236V252.638z" fill="#ffffff" data-original="#000000" style="" class=""/>
	</g>
</g>
<g xmlns="http://www.w3.org/2000/svg">
	<g>
		<path d="M429.333,286.845H407.88c-4.202,0-7.609,3.407-7.609,7.608v41.482c0,4.202,3.407,7.609,7.609,7.609h21.453    c4.202,0,7.608-3.407,7.608-7.609v-41.482C436.942,290.251,433.535,286.845,429.333,286.845z M421.725,328.327h-6.236v-26.265    h6.236V328.327z" fill="#ffffff" data-original="#000000" style="" class=""/>
	</g>
</g>
<g xmlns="http://www.w3.org/2000/svg">
	<g>
		<path d="M105.944,133.618H84.491c-4.202,0-7.608,3.407-7.608,7.608v41.482c0,4.202,3.407,7.608,7.608,7.608h21.453    c4.202,0,7.608-3.407,7.608-7.608v-41.482C113.552,137.025,110.145,133.618,105.944,133.618z M98.335,175.102h-6.236v-26.266    h6.236V175.102z" fill="#ffffff" data-original="#000000" style="" class=""/>
	</g>
</g>
<g xmlns="http://www.w3.org/2000/svg">
	<g>
		<path d="M105.944,211.156H84.491c-4.202,0-7.608,3.407-7.608,7.608v41.482c0,4.202,3.407,7.608,7.608,7.608h21.453    c4.202,0,7.608-3.407,7.608-7.608v-41.482C113.552,214.562,110.145,211.156,105.944,211.156z M98.335,252.638h-6.236v-26.266    h6.236V252.638z" fill="#ffffff" data-original="#000000" style="" class=""/>
	</g>
</g>
<g xmlns="http://www.w3.org/2000/svg">
	<g>
		<path d="M105.944,286.845H84.491c-4.202,0-7.608,3.407-7.608,7.608v41.482c0,4.202,3.407,7.609,7.608,7.609h21.453    c4.202,0,7.608-3.407,7.608-7.609v-41.482C113.552,290.251,110.145,286.845,105.944,286.845z M98.335,328.327h-6.236v-26.265    h6.236V328.327z" fill="#ffffff" data-original="#000000" style="" class=""/>
	</g>
</g>
<g xmlns="http://www.w3.org/2000/svg">
	<g>
		<path d="M59.904,133.618H38.45c-4.202,0-7.608,3.407-7.608,7.608v41.482c0,4.202,3.407,7.608,7.608,7.608h21.454    c4.202,0,7.608-3.407,7.608-7.608v-41.482C67.513,137.025,64.106,133.618,59.904,133.618z M52.295,175.102h-6.236v-26.266h6.236    V175.102z" fill="#ffffff" data-original="#000000" style="" class=""/>
	</g>
</g>
<g xmlns="http://www.w3.org/2000/svg">
	<g>
		<path d="M59.904,211.156H38.45c-4.202,0-7.608,3.407-7.608,7.608v41.482c0,4.202,3.407,7.608,7.608,7.608h21.454    c4.202,0,7.608-3.407,7.608-7.608v-41.482C67.513,214.562,64.106,211.156,59.904,211.156z M52.295,252.638h-6.236v-26.266h6.236    V252.638z" fill="#ffffff" data-original="#000000" style="" class=""/>
	</g>
</g>
<g xmlns="http://www.w3.org/2000/svg">
	<g>
		<path d="M59.904,286.845H38.45c-4.202,0-7.608,3.407-7.608,7.608v41.482c0,4.202,3.407,7.609,7.608,7.609h21.454    c4.202,0,7.608-3.407,7.608-7.609v-41.482C67.513,290.251,64.106,286.845,59.904,286.845z M52.295,328.327h-6.236v-26.265h6.236    V328.327z" fill="#ffffff" data-original="#000000" style="" class=""/>
	</g>
</g>
<g xmlns="http://www.w3.org/2000/svg">
</g>
<g xmlns="http://www.w3.org/2000/svg">
</g>
<g xmlns="http://www.w3.org/2000/svg">
</g>
<g xmlns="http://www.w3.org/2000/svg">
</g>
<g xmlns="http://www.w3.org/2000/svg">
</g>
<g xmlns="http://www.w3.org/2000/svg">
</g>
<g xmlns="http://www.w3.org/2000/svg">
</g>
<g xmlns="http://www.w3.org/2000/svg">
</g>
<g xmlns="http://www.w3.org/2000/svg">
</g>
<g xmlns="http://www.w3.org/2000/svg">
</g>
<g xmlns="http://www.w3.org/2000/svg">
</g>
<g xmlns="http://www.w3.org/2000/svg">
</g>
<g xmlns="http://www.w3.org/2000/svg">
</g>
<g xmlns="http://www.w3.org/2000/svg">
</g>
<g xmlns="http://www.w3.org/2000/svg">
</g>
</g></svg>
