<?xml version="1.0" encoding="iso-8859-1"?>
<!-- Generator: Adobe Illustrator 19.0.0, SVG Export Plug-In . SVG Version: 6.00 Build 0)  -->
<svg version="1.1" id="Layer_1" xmlns="http://www.w3.org/2000/svg" xmlns:xlink="http://www.w3.org/1999/xlink" x="0px" y="0px"
	 viewBox="0 0 512 512" style="enable-background:new 0 0 512 512;" xml:space="preserve">
<polygon style="fill:#ABB3B7;" points="7.608,123.68 7.608,97.364 136.786,97.364 136.786,503.763 7.608,503.763 7.608,234.299 "/>
<path style="fill:#38E09B;" d="M186.744,271.941v-38.435c0-17.375,14.085-31.46,31.46-31.46l35.492,20.289l35.492-20.289
	c17.375,0,31.46,14.085,31.46,31.46v237.242H186.744V342.994V271.941z"/>
<path style="opacity:0.18;fill:#285493;enable-background:new    ;" d="M290.734,202.085c0.024,0.513,0.04,1.029,0.04,1.548V397.83
	c0,12.961-10.55,23.444-23.51,23.362l-80.52-0.509v50.064h133.902V233.505C320.646,216.65,307.39,202.893,290.734,202.085z"/>
<rect x="95.218" y="452.512" style="fill:#ABB3B7;" width="307.91" height="51.251"/>
<rect x="136.79" y="452.512" style="opacity:0.2;enable-background:new    ;" width="21.425" height="51.251"/>
<rect x="350.507" y="452.512" style="opacity:0.2;enable-background:new    ;" width="57.368" height="51.251"/>
<rect x="375.22" y="97.368" style="fill:#ABB3B7;" width="129.182" height="406.404"/>
<polygon style="opacity:0.1;enable-background:new    ;" points="469.187,97.364 469.187,468.558 375.215,468.558 375.215,503.763 
	504.392,503.763 504.392,97.364 "/>
<g>
	<circle style="fill:#38E09B;" cx="253.697" cy="143.516" r="42.009"/>
	<path style="fill:#38E09B;" d="M321.454,42.919l-33.969,14.218c-5.17-3.778-10.993-6.711-17.271-8.598l-16.52-40.302l-16.52,40.303
		c-6.279,1.887-12.102,4.82-17.271,8.598L185.934,42.92l15.482,36.989c-3.24,7.184-5.059,15.148-5.059,23.541h29.091
		c0-15.6,12.646-28.247,28.247-28.247c15.6,0,28.247,12.646,28.247,28.247h29.09c0-8.393-1.818-16.356-5.059-23.541L321.454,42.919z
		"/>
</g>
<g>
	<rect x="453.922" y="141.224" style="fill:#285493;" width="21.456" height="41.482"/>
	<rect x="453.922" y="218.769" style="fill:#285493;" width="21.456" height="41.482"/>
	<rect x="453.922" y="294.448" style="fill:#285493;" width="21.456" height="41.482"/>
	<rect x="407.875" y="141.224" style="fill:#285493;" width="21.456" height="41.482"/>
	<rect x="407.875" y="218.769" style="fill:#285493;" width="21.456" height="41.482"/>
	<rect x="407.875" y="294.448" style="fill:#285493;" width="21.456" height="41.482"/>
	<rect x="84.495" y="141.224" style="fill:#285493;" width="21.456" height="41.482"/>
	<rect x="84.495" y="218.769" style="fill:#285493;" width="21.456" height="41.482"/>
	<rect x="84.495" y="294.448" style="fill:#285493;" width="21.456" height="41.482"/>
	<rect x="38.451" y="141.224" style="fill:#285493;" width="21.456" height="41.482"/>
	<rect x="38.451" y="218.769" style="fill:#285493;" width="21.456" height="41.482"/>
	<rect x="38.451" y="294.448" style="fill:#285493;" width="21.456" height="41.482"/>
</g>
<polygon style="opacity:0.1;enable-background:new    ;" points="101.581,97.364 101.581,468.558 7.608,468.558 7.608,503.763 
	136.786,503.763 136.786,97.364 "/>
<path d="M193.167,79.904c-2.934,7.511-4.418,15.416-4.418,23.545c0,4.202,3.407,7.608,7.608,7.608h19.854
	c-7.553,8.709-12.14,20.057-12.14,32.463c0,27.362,22.26,49.623,49.623,49.623c27.362,0,49.622-22.26,49.622-49.623
	c0-12.406-4.586-23.754-12.14-32.463h19.854c4.202,0,7.608-3.407,7.608-7.608c0-8.13-1.484-16.034-4.417-23.545l14.251-34.048
	c1.192-2.848,0.545-6.134-1.638-8.318c-2.184-2.184-5.472-2.83-8.318-1.638l-30.166,12.627c-3.917-2.477-8.072-4.52-12.42-6.104
	L260.734,5.351c-1.171-2.857-3.952-4.722-7.039-4.722s-5.869,1.866-7.039,4.723L231.46,42.424c-4.348,1.584-8.503,3.626-12.42,6.104
	L188.873,35.9c-2.849-1.192-6.134-0.546-8.318,1.638c-2.183,2.183-2.831,5.47-1.638,8.318L193.167,79.904z M253.694,177.926
	c-18.971,0-34.406-15.434-34.406-34.406s15.434-34.406,34.406-34.406S288.1,124.549,288.1,143.52S272.666,177.926,253.694,177.926z
	 M233.79,98.079c2.372-8.78,10.385-15.268,19.904-15.268c9.52,0,17.532,6.487,19.905,15.268c-6.098-2.681-12.828-4.181-19.905-4.181
	S239.887,95.398,233.79,98.079z M216.966,64.156c2.458,1.03,5.276,0.697,7.428-0.875c4.555-3.329,9.593-5.837,14.97-7.454
	c2.198-0.66,3.98-2.277,4.85-4.401l9.479-23.127l9.48,23.127c0.87,2.123,2.653,3.74,4.85,4.401
	c5.38,1.616,10.417,4.124,14.971,7.454c2.152,1.572,4.969,1.906,7.428,0.875l16.845-7.052l-8.315,19.866
	c-0.815,1.946-0.784,4.142,0.083,6.065c1.856,4.116,3.129,8.4,3.807,12.805h-14.108c-3.499-16.128-17.882-28.247-35.043-28.247
	S222.15,79.713,218.653,95.84h-14.107c0.679-4.404,1.951-8.689,3.807-12.805c0.867-1.923,0.897-4.12,0.083-6.065l-8.315-19.866
	L216.966,64.156z"/>
<path d="M504.392,89.756H375.215c-4.202,0-7.608,3.407-7.608,7.608v347.538h-39.352V233.506c0-21.542-17.526-39.068-39.068-39.068
	c-1.325,0-2.626,0.346-3.776,1.003l-31.716,18.13l-31.716-18.13c-1.149-0.657-2.452-1.003-3.776-1.003
	c-21.542,0-39.068,17.526-39.068,39.068v38.435c0,4.202,3.407,7.608,7.608,7.608s7.608-3.407,7.608-7.608v-38.435
	c0-12.514,9.689-22.809,21.959-23.777l33.607,19.212c2.34,1.337,5.212,1.337,7.552,0l33.607-19.212
	c12.271,0.967,21.959,11.262,21.959,23.777v211.396H194.352V305.377c0-4.202-3.407-7.608-7.608-7.608s-7.608,3.407-7.608,7.608
	v139.525h-34.74V97.364c0-4.202-3.407-7.608-7.608-7.608H7.608C3.407,89.756,0,93.162,0,97.364v26.316
	c0,4.202,3.407,7.608,7.608,7.608s7.608-3.407,7.608-7.608v-18.708h113.961v347.538v43.644H15.217V161.968
	c0-4.202-3.407-7.608-7.608-7.608S0,157.766,0,161.968v341.794c0,4.202,3.407,7.608,7.608,7.608h129.178h238.428h129.177
	c4.202,0,7.608-3.407,7.608-7.608V97.364C512,93.162,508.593,89.756,504.392,89.756z M144.395,460.118h42.349h133.903h46.961v36.036
	H144.395V460.118z M496.783,496.154h-113.96V452.51V104.973h113.96V496.154z"/>
<path d="M453.921,190.318h21.453c4.202,0,7.608-3.407,7.608-7.608v-41.482c0-4.202-3.407-7.608-7.608-7.608h-21.453
	c-4.202,0-7.608,3.407-7.608,7.608v41.482C446.312,186.911,449.719,190.318,453.921,190.318z M461.529,148.836h6.236v26.266h-6.236
	V148.836z"/>
<path d="M453.921,267.855h21.453c4.202,0,7.608-3.407,7.608-7.608v-41.482c0-4.202-3.407-7.608-7.608-7.608h-21.453
	c-4.202,0-7.608,3.407-7.608,7.608v41.482C446.312,264.448,449.719,267.855,453.921,267.855z M461.529,226.373h6.236v26.266h-6.236
	V226.373z"/>
<path d="M453.921,343.544h21.453c4.202,0,7.608-3.407,7.608-7.608v-41.482c0-4.202-3.407-7.608-7.608-7.608h-21.453
	c-4.202,0-7.608,3.407-7.608,7.608v41.482C446.312,340.138,449.719,343.544,453.921,343.544z M461.529,302.062h6.236v26.265h-6.236
	V302.062z"/>
<path d="M407.88,190.318h21.453c4.202,0,7.608-3.407,7.608-7.608v-41.482c0-4.202-3.407-7.608-7.608-7.608H407.88
	c-4.202,0-7.608,3.407-7.608,7.608v41.482C400.272,186.911,403.679,190.318,407.88,190.318z M415.489,148.836h6.236v26.266h-6.236
	V148.836z"/>
<path d="M407.88,267.855h21.453c4.202,0,7.608-3.407,7.608-7.608v-41.482c0-4.202-3.407-7.608-7.608-7.608H407.88
	c-4.202,0-7.608,3.407-7.608,7.608v41.482C400.272,264.448,403.679,267.855,407.88,267.855z M415.489,226.373h6.236v26.266h-6.236
	V226.373z"/>
<path d="M407.88,343.544h21.453c4.202,0,7.608-3.407,7.608-7.608v-41.482c0-4.202-3.407-7.608-7.608-7.608H407.88
	c-4.202,0-7.608,3.407-7.608,7.608v41.482C400.272,340.138,403.679,343.544,407.88,343.544z M415.489,302.062h6.236v26.265h-6.236
	V302.062z"/>
<path d="M84.491,190.318h21.453c4.202,0,7.608-3.407,7.608-7.608v-41.482c0-4.202-3.407-7.608-7.608-7.608H84.491
	c-4.202,0-7.608,3.407-7.608,7.608v41.482C76.882,186.911,80.289,190.318,84.491,190.318z M92.099,148.836h6.236v26.266h-6.236
	V148.836z"/>
<path d="M76.882,260.247c0,4.202,3.407,7.608,7.608,7.608h21.453c4.202,0,7.608-3.407,7.608-7.608v-41.482
	c0-4.202-3.407-7.608-7.608-7.608H84.491c-4.202,0-7.608,3.407-7.608,7.608V260.247z M92.099,226.373h6.236v26.266h-6.236V226.373z"
	/>
<path d="M76.882,335.936c0,4.202,3.407,7.608,7.608,7.608h21.453c4.202,0,7.608-3.407,7.608-7.608v-41.482
	c0-4.202-3.407-7.608-7.608-7.608H84.491c-4.202,0-7.608,3.407-7.608,7.608V335.936z M92.099,302.062h6.236v26.265h-6.236V302.062z"
	/>
<path d="M38.45,190.318h21.454c4.202,0,7.608-3.407,7.608-7.608v-41.482c0-4.202-3.407-7.608-7.608-7.608H38.45
	c-4.202,0-7.608,3.407-7.608,7.608v41.482C30.842,186.911,34.248,190.318,38.45,190.318z M46.059,148.836h6.236v26.266h-6.236
	V148.836z"/>
<path d="M30.842,260.247c0,4.202,3.407,7.608,7.608,7.608h21.454c4.202,0,7.608-3.407,7.608-7.608v-41.482
	c0-4.202-3.407-7.608-7.608-7.608H38.45c-4.202,0-7.608,3.407-7.608,7.608V260.247z M46.059,226.373h6.236v26.266h-6.236V226.373z"
	/>
<path d="M30.842,335.936c0,4.202,3.407,7.608,7.608,7.608h21.454c4.202,0,7.608-3.407,7.608-7.608v-41.482
	c0-4.202-3.407-7.608-7.608-7.608H38.45c-4.202,0-7.608,3.407-7.608,7.608V335.936z M46.059,302.062h6.236v26.265h-6.236V302.062z"
	/>
<g>
</g>
<g>
</g>
<g>
</g>
<g>
</g>
<g>
</g>
<g>
</g>
<g>
</g>
<g>
</g>
<g>
</g>
<g>
</g>
<g>
</g>
<g>
</g>
<g>
</g>
<g>
</g>
<g>
</g>
</svg>
