<?xml version="1.0"?>
<svg xmlns="http://www.w3.org/2000/svg" xmlns:xlink="http://www.w3.org/1999/xlink" xmlns:svgjs="http://svgjs.com/svgjs" version="1.1" width="512" height="512" x="0" y="0" viewBox="0 0 512 512" style="enable-background:new 0 0 512 512" xml:space="preserve" class=""><g><g xmlns="http://www.w3.org/2000/svg"><path d="m465.501 476.018c-31.703-36.221-57.698-72.827-79.421-111.803.975-4.602.386-9.45-1.817-13.818-4.106-8.143-8.063-16.448-11.761-24.685-2.201-4.901-6.146-8.668-10.896-10.721-8.361-19.06-15.629-38.536-21.645-58.003 2.833-4.836 3.617-10.559 2.127-16.065-2.204-8.144-4.233-16.409-6.032-24.565-1.298-5.884-4.895-10.685-9.721-13.582-5.792-29.823-8.927-60.257-9.323-90.622 13.826-3.392 24.117-15.885 24.117-30.743 0-17.456-14.202-31.658-31.658-31.658h-13.464v-22.494c0-15.031-12.228-27.259-27.258-27.259h-25.496c-15.031 0-27.259 12.228-27.259 27.259v22.495h-13.464c-17.456 0-31.658 14.202-31.658 31.658 0 14.857 10.291 27.35 24.117 30.743-.396 30.367-3.531 60.801-9.323 90.622-4.826 2.897-8.423 7.698-9.72 13.582-1.798 8.156-3.828 16.421-6.031 24.565-1.491 5.506-.707 11.229 2.126 16.065-6.017 19.469-13.284 38.946-21.645 58.004-4.75 2.053-8.695 5.82-10.896 10.722-3.697 8.236-7.654 16.541-11.761 24.684-2.203 4.368-2.791 9.216-1.816 13.817-21.724 38.976-47.718 75.583-79.421 111.803-12.287 14.034-2.319 35.981 16.316 35.981h53.309c9.509 0 17.8-6.026 20.632-14.997 14.444-45.759 63.478-77.718 119.242-77.718 27.459 0 53.464 7.525 75.205 21.762 3.464 2.269 8.114 1.3 10.383-2.166 2.269-3.465 1.3-8.114-2.166-10.383-24.189-15.84-53.036-24.213-83.422-24.213-62.238 0-117.154 36.271-133.547 88.203-.838 2.657-3.44 4.512-6.327 4.512h-53.309c-5.762 0-8.817-6.777-5.03-11.103 30.695-35.069 56.184-70.518 77.691-108.078 3.32 2.049 7.172 3.117 11.043 3.117h36.768c4.123 0 7.5-3.336 7.5-7.5 0-4.142-3.358-7.5-7.5-7.5h-36.768c-4.531 0-7.421-4.758-5.391-8.785 4.207-8.343 8.262-16.854 12.051-25.294 1.006-2.239 3.245-3.6 5.526-3.6h194.584c2.275 0 4.517 1.352 5.526 3.599 3.79 8.441 7.845 16.951 12.052 25.295 2.029 4.023-.879 8.784-5.391 8.784h-152.192c-4.123 0-7.5 3.336-7.5 7.5 0 4.142 3.358 7.5 7.5 7.5h152.193c3.892 0 7.751-1.087 11.042-3.116 21.508 37.56 46.997 73.007 77.692 108.078 3.795 4.336.718 11.103-5.03 11.103h-53.309c-2.887 0-5.489-1.855-6.327-4.511-5.074-16.074-13.833-30.824-26.034-43.839-2.833-3.022-7.58-3.175-10.601-.342-3.022 2.833-3.175 7.579-.342 10.601 10.652 11.363 18.281 24.18 22.673 38.096 2.832 8.97 11.123 14.996 20.632 14.996h53.309c18.652-.001 28.59-21.962 16.316-35.983zm-234.507-448.759c0-6.759 5.5-12.259 12.259-12.259h25.496c6.76 0 12.259 5.5 12.259 12.259v22.495h-50.013v-22.495zm15.889 85.81h18.236v86.707h-18.236zm33.236 86.707v-86.707h21.903c.418 29.032 3.262 58.123 8.476 86.707zm-48.236-86.707v86.707h-30.378c5.213-28.583 8.057-57.673 8.475-86.707zm-46.01-31.658c0-9.185 7.473-16.658 16.658-16.658h106.941c9.185 0 16.658 7.473 16.658 16.658s-7.473 16.657-16.658 16.657h-.001c-.001 0-.002 0-.002 0-12.927 0-93.96 0-106.934 0-.001 0-.002 0-.002 0h-.001c-9.187.001-16.659-7.472-16.659-16.657zm-1.479 163.431c2.265-8.371 4.352-16.868 6.201-25.254.642-2.913 3.173-4.812 5.92-4.812h118.973c2.663 0 5.262 1.827 5.92 4.812 1.849 8.386 3.936 16.883 6.201 25.254 1.052 3.887-1.924 7.602-5.84 7.602-16.101 0-118.405 0-131.535 0-.001 0-.003 0-.004 0-3.896 0-6.89-3.713-5.836-7.602zm.325 21.882c1.534.418 3.588.721 5.51.721h.004 30.673c-4.462 15.238-9.623 30.589-15.401 45.813h-38.021c6.465-15.349 12.237-30.933 17.235-46.534zm36.816 46.534c5.634-15.245 10.659-30.595 14.995-45.813h38.941c4.337 15.221 9.362 30.571 14.995 45.813zm84.961 0c-5.777-15.222-10.939-30.573-15.401-45.813h30.674c1.871 0 3.965-.305 5.514-.72 4.998 15.6 10.77 31.184 17.234 46.534h-38.021z" fill="#ffffff" data-original="#000000" style="" class=""/></g></g></svg>
