<svg id="Layer_2" enable-background="new 0 0 64 64" height="512" viewBox="0 0 64 64" width="512" xmlns="http://www.w3.org/2000/svg"><path d="m60.829 54.947-15.322-5.147-13.503 5.147-13.589-5.147-15.243 5.147 7.099-24.078 11.488-3.879 10.244 3.879 10.178-3.879 11.549 3.879z" fill="#f8f3f3"/><path d="m60.829 55.447c-.053 0-.107-.008-.159-.026l-15.152-5.089-13.335 5.083c-.115.044-.241.043-.355 0l-13.422-5.083-15.073 5.088c-.178.059-.372.016-.507-.113-.134-.129-.186-.323-.133-.502l7.098-24.078c.046-.156.165-.28.319-.332l11.489-3.879c.11-.037.229-.036.337.006l10.066 3.812 10-3.812c.109-.042.228-.042.337-.007l11.549 3.879c.155.052.274.176.32.333l7.098 24.078c.053.179.001.373-.133.501-.092.092-.217.141-.344.141zm-42.414-6.147c.06 0 .12.011.177.032l13.412 5.08 13.325-5.079c.109-.041.229-.043.337-.007l14.412 4.841-6.753-22.907-11.133-3.739-10.011 3.815c-.115.043-.241.044-.355 0l-10.076-3.815-11.073 3.739-6.753 22.905 14.331-4.838c.052-.018.105-.027.16-.027z" fill="#63312d"/><path d="m12.707 33.212-5.024 17.045 10.79-3.642 3.228-16.44z" fill="#f9a287"/><path d="m13.998 34.254 7.392-2.496.311-1.583-8.994 3.037-5.024 17.045 1.775-.599z" fill="#ffc8bb"/><path d="m21.701 30.175-3.228 16.44 13.527 5.123.006-17.66z" fill="#db785a"/><path d="m32.006 34.078-.006 17.66 13.443-5.125-3.198-16.438z" fill="#f9a287"/><path d="m51.294 33.216-9.049-3.041 3.198 16.438 10.879 3.654z" fill="#db785a"/><g fill="#63312d"><path d="m7.683 50.757c-.127 0-.252-.049-.347-.14-.134-.129-.186-.323-.133-.502l5.024-17.045c.046-.156.165-.28.319-.332l8.994-3.037c.169-.057.356-.02.49.098.134.117.195.297.161.472l-3.229 16.439c-.035.176-.161.32-.331.377l-10.79 3.643c-.051.019-.105.027-.158.027zm5.43-17.154-4.679 15.873 9.604-3.242 3.006-15.309z"/><path d="m32 52.238c-.06 0-.12-.011-.177-.032l-13.528-5.123c-.228-.086-.36-.325-.313-.564l3.229-16.439c.028-.145.119-.269.248-.341s.282-.082.42-.031l10.305 3.902c.194.074.323.26.323.468l-.007 17.66c0 .165-.081.318-.216.412-.084.058-.183.088-.284.088zm-12.956-5.941 12.456 4.717.006-16.591-9.429-3.57z"/><path d="m32 52.238c-.1 0-.199-.03-.284-.088-.135-.093-.216-.247-.216-.412l.006-17.66c0-.208.128-.394.322-.467l10.239-3.902c.138-.053.292-.042.421.03s.22.197.248.341l3.198 16.438c.046.239-.085.476-.313.563l-13.442 5.125c-.058.021-.118.032-.179.032zm.506-17.816-.006 16.59 12.371-4.717-3.004-15.441z"/><path d="m56.322 50.767c-.053 0-.107-.008-.159-.026l-10.879-3.654c-.17-.058-.297-.202-.332-.378l-3.198-16.438c-.034-.175.027-.354.161-.472.134-.117.319-.156.489-.098l9.049 3.041c.155.052.274.176.32.333l5.027 17.051c.053.179.001.373-.133.501-.093.091-.218.14-.345.14zm-10.444-4.536 9.693 3.256-4.682-15.88-7.989-2.684z"/></g><path d="m24.331 40.376c0-2.063 3.573-3.736 7.98-3.736s7.979 1.674 7.979 3.736-3.573 3.736-7.979 3.736c-4.408.001-7.98-1.673-7.98-3.736z" fill="#82d9ff"/><path d="m32.311 44.613c-4.755 0-8.48-1.861-8.48-4.236s3.725-4.236 8.48-4.236 8.479 1.861 8.479 4.236-3.724 4.236-8.479 4.236zm0-7.473c-4.475 0-7.48 1.673-7.48 3.236s3.006 3.236 7.48 3.236 7.479-1.673 7.479-3.236-3.005-3.236-7.479-3.236z" fill="#63312d"/><path d="m35.257 9.052c6.429 0 11.64 5.211 11.64 11.641 0 3.584-1.889 6.385-3.935 9.176-1.719 2.346-6.834 9.371-7.706 10.508h-5.897v-31.325z" fill="#efc36a"/><path d="m35.257 40.876h-5.896c-.276 0-.5-.224-.5-.5v-31.324c0-.276.224-.5.5-.5h5.896c6.694 0 12.14 5.446 12.14 12.141 0 3.672-1.826 6.462-4.031 9.471l-1.988 2.721c-2.146 2.938-5.084 6.962-5.724 7.796-.094.123-.241.195-.397.195zm-5.396-1h5.148c.855-1.137 3.555-4.834 5.562-7.582l1.989-2.722c2.1-2.865 3.838-5.511 3.838-8.88 0-6.143-4.998-11.141-11.14-11.141h-5.396v30.325z" fill="#63312d"/><path d="m29.361 9.052c-6.429 0-11.637 5.211-11.637 11.641 0 3.584 1.888 6.385 3.935 9.176 1.719 2.346 7.702 10.508 7.702 10.508.871-1.137 5.984-8.162 7.706-10.508 2.046-2.791 3.935-5.592 3.935-9.176-.001-6.43-5.214-11.641-11.641-11.641z" fill="#f9dd9d"/><path d="m23.659 29.869c-2.046-2.791-3.935-5.592-3.935-9.176 0-6.092 4.677-11.082 10.637-11.59-.33-.028-.663-.051-1-.051-6.429 0-11.637 5.211-11.637 11.641 0 3.584 1.888 6.385 3.935 9.176 1.719 2.346 7.702 10.508 7.702 10.508.178-.232.54-.72 1.007-1.354-1.774-2.421-5.427-7.404-6.709-9.154z" fill="#ffeecf"/><path d="m29.361 40.876c-.002 0-.003 0-.005 0-.157-.001-.305-.078-.398-.205l-7.702-10.508c-2.206-3.008-4.031-5.797-4.031-9.471 0-6.694 5.444-12.141 12.137-12.141 6.694 0 12.141 5.446 12.141 12.141 0 3.672-1.826 6.462-4.032 9.471l-2.311 3.161c-2.136 2.923-4.793 6.562-5.401 7.356-.096.124-.243.196-.398.196zm0-31.324c-6.141 0-11.137 4.998-11.137 11.141 0 3.372 1.738 6.017 3.838 8.88l7.304 9.964c.986-1.326 3.174-4.322 4.986-6.802l2.312-3.162c2.1-2.865 3.838-5.51 3.838-8.88-.001-6.143-4.998-11.141-11.141-11.141z" fill="#63312d"/><path d="m34.978 20.591c0 3.1-2.516 5.615-5.617 5.615s-5.616-2.516-5.616-5.615c0-3.102 2.515-5.617 5.616-5.617s5.617 2.516 5.617 5.617z" fill="#f8f3f3"/><path d="m29.361 26.707c-3.373 0-6.116-2.743-6.116-6.115 0-3.373 2.744-6.117 6.116-6.117 3.373 0 6.117 2.744 6.117 6.117 0 3.371-2.744 6.115-6.117 6.115zm0-11.233c-2.821 0-5.116 2.295-5.116 5.117 0 2.82 2.295 5.115 5.116 5.115 2.822 0 5.117-2.295 5.117-5.115 0-2.821-2.295-5.117-5.117-5.117z" fill="#63312d"/></svg>